<svg xmlns="http://www.w3.org/2000/svg" id="Layer_1" data-name="Layer 1" viewBox="0 0 467.61 125.9"><defs><style>      .cls-1 {        fill: #fcca01;      }      .cls-1, .cls-2, .cls-3, .cls-4, .cls-5, .cls-6, .cls-7, .cls-8, .cls-9 {        stroke-width: 0px;      }      .cls-2 {        fill: none;      }      .cls-3 {        fill: #566665;      }      .cls-4 {        fill: #ab9932;      }      .cls-5 {        fill: #a93;      }      .cls-6 {        fill: #039;      }      .cls-7 {        fill: #c9002b;      }      .cls-8 {        fill: #777a51;      }      .cls-9 {        fill: #003398;      }    </style></defs><g><path class="cls-6" d="M135.84,83.42V0h51.81v13.46h-37.2v21.45h33.32v12.89h-33.32v22.14h37.2v13.47h-51.81Z"></path><path class="cls-6" d="M198.94,83.42V0h29.21c24.65,0,41.65,17,41.65,41.88s-16.66,41.54-40.85,41.54h-30.01ZM213.55,13.47v56.48h14.04c16.66,0,26.82-10.73,26.82-28.07s-10.38-28.41-27.61-28.41h-13.24Z"></path><path class="cls-6" d="M293.42,83.42h-14.61V0h14.61v83.41Z"></path><path class="cls-6" d="M307.34,83.42V0h14.61v34.46h36.97V0h14.61v83.41h-14.61v-35.37h-36.97v35.37h-14.61Z"></path></g><g><path class="cls-7" d="M135.94,125.25v-31.14h6.62v12.27h13.54v-12.27h6.62v31.14h-6.62v-13.18h-13.54v13.18h-6.62Z"></path><path class="cls-7" d="M205.49,118.57h-12.15l-2.4,6.68h-6.66l11.76-31.14h7.23l11.67,31.14h-7.1l-2.35-6.68ZM195.21,113.32h8.45l-4.18-12.01-4.27,12.01Z"></path><path class="cls-7" d="M242.5,104.56v20.69h-6.01v-31.14h7.93l9.06,23.07,9.1-23.07h7.93v31.14h-6.01v-20.86l-8.27,20.86h-5.53l-8.19-20.69Z"></path><path class="cls-7" d="M306.91,125.25h-12.24v-31.14h11.76c6.58,0,10.63,2.95,10.63,8.28,0,2.86-1.61,5.16-4.4,6.59,3.48,1.21,5.4,3.69,5.4,7.11,0,5.77-4.27,9.15-11.15,9.15ZM300.68,99.32v7.24h5.23c3.22,0,4.88-1.39,4.88-3.64s-1.65-3.6-4.88-3.6h-5.23ZM300.68,111.81v8.24h5.7c3.57,0,5.44-1.56,5.44-4.21,0-2.47-1.87-4.03-5.44-4.03h-5.7Z"></path><path class="cls-7" d="M365.96,113.41c0,7.37-4.7,12.49-12.85,12.49s-12.89-5.12-12.89-12.49v-19.3h6.62v19.43c0,3.86,1.87,6.46,6.27,6.46s6.23-2.6,6.23-6.46v-19.43h6.62v19.3Z"></path><path class="cls-7" d="M390.04,125.25v-31.14h12.24c7.88,0,12.45,3.64,12.45,10.11,0,4.21-2.61,7.55-7.05,9.02l8.06,12.01h-7.88l-7.05-11.02h-4.14v11.02h-6.62ZM396.66,108.81h5.31c4.01,0,6.14-1.56,6.14-4.6s-2.13-4.64-6.14-4.64h-5.31v9.24Z"></path><path class="cls-7" d="M435.63,109.55c0-9.19,6.71-16.09,15.85-16.09,7.93,0,13.59,4.68,15.63,11.45h-7.79c-.96-3.17-3.83-5.55-8.01-5.55-5.05,0-8.88,3.69-8.88,10.36,0,5.98,3.35,10.58,9.62,10.58,4.62,0,7.53-2.73,8.4-6.59h-9.06v-5.25h16.11c.39,10.15-5.79,17.43-15.76,17.43-9.06,0-16.11-6.72-16.11-16.35Z"></path></g><g><path class="cls-9" d="M456.51,45.42s0,0,0,0c-.03-.08-.05-.15-.08-.23.03.08.05.15.07.23ZM455.73,43s0,0,0,0c.06.19.13.38.19.58-.06-.19-.13-.38-.19-.58ZM455.54,42.41s.01.06.03.1c.06.16.11.32.16.48-.05-.16-.11-.32-.16-.49-.01-.03-.02-.07-.03-.1ZM455.54,42.41s0-.05,0-.07c0,.02,0,.04,0,.07ZM455.53,42.35s0-.04,0-.06c0,.02,0,.04,0,.06ZM454.3,26.49c.05-.04.1-.07.15-.11h0c-.05.04-.1.07-.15.11ZM453.21,54.13c.37,0,.75,0,1.12,0,0,0,.02,0,.03-.01,0,0-.02,0-.03,0-.37,0-.75,0-1.12,0ZM453.45,27.11s-.09.06-.13.1c-.11.08-.22.16-.33.24.11-.08.22-.16.33-.24.05-.03.09-.07.14-.1ZM453.37,43.76c.06-.04.11-.08.15-.11-.05.03-.1.06-.15.11ZM453.27,43.83s.06-.05.09-.07c-.03.02-.06.04-.09.07-.42.3-.84.61-1.26.92.42-.3.84-.61,1.26-.91ZM452.79,31.53c-.06-.19-.12-.38-.18-.57.06.19.12.37.18.56h0s0,0,0,0ZM452.7,59.17s-.01,0-.02,0c0,0,.01,0,.02,0,.02-.05.02-.09.02-.13,0,.04,0,.08-.02.13ZM452.45,58.22c.06.2.13.41.19.61,0,.02.01.04.03.06,0-.02-.02-.04-.02-.06-.06-.2-.13-.41-.19-.61ZM451.11,45.31c.32-.98.63-1.94.95-2.91,0,0,0-.02,0-.02,0,0,0,.02,0,.02-.32.96-.63,1.93-.95,2.91.04,0,.07,0,.1,0-.03,0-.06,0-.1,0ZM451.94,42.09s-.02-.02-.03-.02c-.1-.07-.2-.15-.3-.22.1.07.2.15.31.22.01,0,.02.01.03.02ZM450.31,29.72s-.04-.03-.06-.04c.02.01.04.03.06.04.2.15.4.3.61.45-.2-.15-.4-.3-.6-.45ZM450.84,53.29s-.01-.06-.02-.08c-.14-.41-.27-.82-.41-1.25.14.42.27.83.41,1.25,0,.03.02.06.03.08ZM450.23,23.65c.1.32.2.62.3.92-.1-.3-.2-.6-.3-.92ZM450.25,29.67s-.08-.04-.11-.05c.04,0,.07.03.11.05ZM450.07,23.16c-.17.51-.33,1-.48,1.48.16-.48.32-.97.48-1.48,0,0,0,0,0,0ZM448.3,28.64h0s.01-.04.02-.06c0,.02-.01.04-.02.06ZM447.67,59.09s.04-.03.06-.04c.17-.13.35-.25.52-.37-.17.12-.35.25-.52.37-.02.01-.03.03-.05.04ZM445.76,54.14s.03,0,.05,0h0c.24,0,.49,0,.73,0h-.73s-.04,0-.05,0ZM445.78,54.23s.02,0,.04.01c.2.14.39.28.58.42-.19-.14-.39-.28-.58-.43-.01,0-.03,0-.04,0ZM445.79,26.39s.03-.02.05-.03c-.02,0-.03.02-.05.03ZM445.78,26.4s0,.01-.01.02c0,0,0,0,0,0,0,0,0-.01.01-.02ZM445.71,54.15s.03,0,.05,0c-.02,0-.03,0-.05,0h0ZM442.62,69.47h0s0,0,0,0c-.02-.05-.03-.09-.04-.14.01.04.02.08.04.13ZM442.59,21.33c-.2-.15-.41-.29-.61-.44.2.15.4.29.61.44h0ZM442.56,21.15s-.05-.09-.07-.13c-.04-.14-.08-.28-.12-.42.04.14.08.28.12.42.01.05.04.09.07.13ZM442.11,19.75c.09.28.18.56.26.84-.08-.28-.17-.56-.26-.84ZM441.06,64.29c.06.03.13.03.22.03.21,0,.42,0,.63-.01-.21,0-.42,0-.63,0-.09,0-.16,0-.22-.03ZM441.62,66.42s0,.03.01.04c.08.22.15.45.23.67-.08-.22-.15-.45-.23-.68,0-.01,0-.03-.01-.04ZM440.1,19.52s.05.03.07.05c.2.15.4.3.6.44-.2-.15-.4-.29-.6-.44-.03-.02-.05-.04-.07-.05ZM440.08,67.62s.04.03.06.04c.2.15.4.3.61.45-.2-.15-.41-.3-.61-.45-.02-.02-.04-.03-.06-.04ZM440.5,62.93c-.11-.35-.23-.71-.35-1.07.12.36.23.71.35,1.07ZM439.92,13.02s0,0,0,0c.2.62.4,1.22.6,1.82-.19-.6-.39-1.2-.6-1.82ZM439.82,13.27c-.06.19-.12.38-.18.57.06-.19.12-.38.18-.57,0-.02.01-.03.02-.05,0,.02-.01.03-.02.05ZM439.05,15.62c-.03.1-.06.2-.1.3h0c.03-.1.06-.2.1-.3ZM438.95,64.07s-.03.08-.04.11c.02-.03.03-.07.04-.11ZM439.16,19.93c-.41.3-.83.6-1.25.91.43-.31.85-.61,1.25-.91ZM438.05,18.04s-.03-.02-.04-.03c-.2-.15-.41-.29-.61-.44.2.15.41.3.61.44.01,0,.03.02.04.03ZM437.19,69.48c.11-.08.22-.16.32-.24-.11.08-.21.15-.32.23t0,0ZM437.19,21.36c.04-.13.08-.25.11-.37-.04.12-.08.24-.12.37,0,0,0,0,0,0h0ZM435.58,64.34s-.02-.01-.03-.02c0,0,.02.01.03.02.2.15.4.29.59.44-.2-.15-.39-.29-.59-.44h0ZM435.54,64.31s0,0,0,0c0,0,.01,0,.02,0,0,0-.01,0-.02,0ZM430.36,12.47s0,0,0,0h0s0,0,0,0ZM430.33,12.52h0c-.2.14-.4.29-.59.44.2-.15.4-.29.59-.44ZM427.32,12.46s-.03,0-.04,0c.01,0,.03,0,.04,0,.99,0,1.99,0,2.99,0h.03s-.02,0-.03,0c-1,0-2,0-2.99,0ZM430.02,68.03c-.9,0-1.8,0-2.7,0,.9,0,1.8,0,2.7,0,.08,0,.17-.02.28.01-.1-.04-.19-.02-.28-.02ZM428.73,73.19h0s-.04-.03-.06-.04c.02.01.04.03.06.04ZM427.8,14.4s.08-.09.14-.14c.2-.14.4-.29.6-.43-.2.14-.4.29-.6.43-.06.05-.11.09-.14.14ZM428.37,17.37s.07.05.11.08c-.04-.03-.08-.06-.11-.08-.36-.26-.71-.51-1.07-.77.36.26.71.51,1.07.77ZM426.25,71.38c.6.45,1.2.89,1.81,1.33.05.04.1.07.15.11-.05-.04-.1-.08-.15-.11-.61-.44-1.21-.88-1.81-1.32ZM427.81,70.37s-.02-.04-.02-.06c0,.02.01.04.02.06.03.1.07.2.11.3-.03-.1-.07-.2-.1-.3ZM426.15,65.23s-.02-.07-.03-.1c0,.03.01.07.03.1.07.21.14.42.21.64-.07-.21-.14-.42-.21-.64ZM426.01,9.28c.03.1.07.19.1.28-.03-.09-.06-.18-.09-.28,0,0,0,0,0,0ZM425.91,65.16s-.02.08-.03.11c-.03.1-.07.21-.1.31.03-.1.07-.21.1-.31.01-.04.02-.08.03-.11ZM425.24,71.8c.19-.14.38-.28.56-.42.02-.02.04-.03.06-.04-.02.01-.04.02-.06.04-.19.14-.37.28-.56.42ZM425.19,16.27c-.4.29-.81.59-1.22.89.41-.3.82-.59,1.22-.89ZM424.29,14.5s0,.07,0,.11c0-.04.01-.08,0-.11ZM424.15,70.57c.03-.11.06-.19.08-.27-.02.07-.05.16-.08.27-.14.42-.28.85-.41,1.28.14-.43.28-.85.41-1.28ZM424.2,14.34s-.05-.04-.08-.06c-.2-.14-.4-.29-.61-.44.2.15.4.29.61.44.03.02.06.04.08.06ZM423.32,73.13s.04,0,.06,0c-.02,0-.04,0-.06,0h0ZM423.35,17.54s0,.04,0,.07c0,0,0,0,0,0,0-.02,0-.04,0-.07ZM421.68,68.04c.18,0,.35,0,.53,0-.18,0-.35,0-.53,0h0ZM421.7,12.46h.03c.25,0,.49,0,.74,0h-.74s-.02,0-.03,0ZM416.46,64.34s.02-.02.03-.03h0s-.02.02-.03.03ZM413.85,16.19s.09,0,.13,0c.41,0,.82,0,1.24,0-.41,0-.82,0-1.24,0h-.14ZM413.49,64.3c.11.01.26.01.46.01.27,0,.54,0,.82,0-.27,0-.54,0-.82,0-.2,0-.35,0-.46-.01ZM414.04,68.89c.18.13.37.27.55.4,0,0,.01,0,.02.02,0,0-.01-.01-.02-.02-.18-.13-.37-.27-.55-.4ZM414.49,68.37c-.11-.34-.22-.68-.33-1.02.11.34.22.68.33,1.02ZM413.9,18.46s-.01-.03-.02-.05c0,.02,0,.03.02.05.12.35.23.7.35,1.05-.11-.35-.23-.7-.35-1.05ZM412.32,67.64s.05.03.07.05c.14.1.27.21.41.31-.14-.1-.27-.2-.41-.31-.02-.02-.05-.03-.07-.05ZM412.23,19.47s.07.04.11.07c-.04-.03-.08-.05-.11-.07ZM412.23,19.47s-.07-.02-.1-.02c.03,0,.06,0,.1.02ZM411.26,68.14c.2-.15.4-.29.6-.44.05-.04.1-.07.14-.09-.04.02-.09.05-.14.09-.2.15-.4.3-.6.44ZM411.3,15.53c-.04.12-.07.24-.11.36,0,.02,0,.03-.01.04,0-.01.01-.03.02-.04.04-.12.07-.24.11-.36ZM411.18,64.04s-.02.05-.03.07c0-.02.02-.04.03-.07.07-.24.15-.48.23-.72-.08.24-.15.48-.23.72ZM409.24,17.3c.28.21.57.41.86.61.05.03.09.06.12.09-.03-.03-.07-.06-.12-.1-.29-.2-.57-.4-.86-.6ZM409.4,21.37c.09-.06.17-.13.26-.19-.09.06-.17.12-.26.19h0ZM409.4,69.48c.04-.12.08-.24.12-.36-.04.12-.08.24-.12.36,0,0,0,0,0,0ZM408.03,64.31s.04,0,.06,0c.51,0,1.01,0,1.52,0-.51,0-1.02,0-1.52,0-.02,0-.04,0-.06,0ZM407.83,64.38c.19.14.38.28.57.41-.19-.14-.38-.28-.56-.42,0,0,0,0,0,0ZM408.03,64.31s-.06,0-.09,0c.03,0,.06,0,.09,0ZM407.86,16.22s-.02.02-.03.04c0,0,0,0,0,0,0-.02.02-.03.03-.04ZM403.25,54.13s-.03,0-.04,0c.01,0,.03,0,.04,0,.99,0,1.98,0,2.96,0,0,0,.02,0,.03-.01,0,0-.02,0-.03,0-.99,0-1.97,0-2.96,0ZM404.68,31.53h0s0,0,0,0c-.17-.12-.33-.24-.49-.35.16.12.33.24.49.36ZM404.58,59.17s-.06,0-.08,0c.03,0,.05,0,.08,0,.03-.07.02-.14,0-.2.02.06.03.13,0,.2ZM404.86,27.45c-.29.21-.58.41-.86.61-.02.01-.03.03-.05.04.02-.01.03-.02.05-.04.29-.2.58-.4.86-.61ZM403.82,28.21s.07-.06.11-.1c-.04.03-.08.06-.11.1ZM403.75,28.31c-.04.08-.05.17-.03.29-.02-.11-.01-.21.03-.29ZM403.69,56.26s0-.08,0-.12c-.01.04-.02.07,0,.12ZM403.01,54.07s-.02-.02-.03-.04c0,.01.02.03.03.04ZM401.96,23.16s0,0,0,0c.33,1,.64,1.94.93,2.88,0,.01,0,.03.01.04,0-.01,0-.03-.01-.04-.29-.95-.61-1.89-.93-2.89ZM402.01,29.61c-.08-.02-.15,0-.24.07-.2.15-.41.3-.61.46.21-.15.41-.3.62-.45.09-.07.16-.09.24-.08ZM401.71,51.7c.08-.25.16-.49.25-.75,0,0,0,0,0,0-.08.25-.17.51-.25.75ZM401.48,24.62c-.16.47-.31.94-.45,1.41-.02.07-.04.12-.07.16.03-.04.05-.1.07-.16.14-.47.29-.94.45-1.41ZM400.22,56.28c.01-.06,0-.1,0-.14.01.04.01.09,0,.14ZM399.28,59.18c.31-.94.61-1.88.92-2.82,0-.03.02-.06.02-.08,0,.03-.01.05-.02.08-.32.94-.62,1.88-.92,2.82ZM400.03,42.61c.04.1.07.2.11.3-.03-.1-.07-.2-.1-.3-.06-.17-.07-.29-.02-.4-.05.11-.04.23.02.4ZM400.09,28.19s-.06-.06-.1-.08c-.1-.07-.2-.14-.3-.2.1.07.2.14.29.2.04.03.08.06.11.08ZM399.24,31.53s0,0,0,0c.11-.08.22-.16.33-.24-.11.08-.22.16-.33.23ZM397.7,54.24h0s-.03,0-.04,0c.01,0,.02,0,.04.01.73.53,1.45,1.06,2.18,1.58-.73-.52-1.45-1.05-2.18-1.58ZM398.65,26.36c-.24,0-.49,0-.73,0-.02,0-.04,0-.06,0,.02,0,.04,0,.06,0,.24,0,.49,0,.73,0ZM397.64,26.41h0s.17.12.17.12c-.06-.04-.11-.08-.17-.12ZM397.7,54.13c.24,0,.49,0,.73,0h-.73s-.03,0-.05,0c.02,0,.03,0,.05,0h0ZM397.59,54.15s.04,0,.05,0c-.02,0-.04,0-.05,0h0ZM396.28,40.24c.18,0,.36,0,.54.01.11,0,.2,0,.27-.04-.07.03-.16.04-.27.04-.18,0-.36,0-.54,0Z"></path><path class="cls-6" d="M384.29,0v82.87h0v.55h83.32V0c-27.78,0-55.55,0-83.32,0ZM454.73,39.91c.02.07.05.12.07.16,0,.01.01.02.02.03,0,.01.02.03.03.04,0,0,0,0,0,0,.01.01.03.03.04.03.01,0,.03.01.04.02,0,0,.02,0,.02,0,.02,0,.03,0,.05.01.01,0,.03,0,.04,0,.02,0,.03,0,.05,0,0,0,.02,0,.03,0,.01,0,.03,0,.05,0,.06,0,.14,0,.23,0h2.78c-.07.05-.14.11-.21.16-.14.1-.28.2-.41.3-.13.1-.27.19-.4.29-.2.14-.39.28-.58.42-.29.21-.57.43-.87.63-.03.02-.06.04-.09.07-.01.01-.02.02-.03.03-.02.02-.03.04-.04.06,0,.01-.01.02-.02.03,0,.02-.01.04-.02.06,0,.04,0,.08,0,.13,0,.03.02.06.03.1.12.35.24.71.35,1.06.04.13.08.26.13.39.11.35.23.71.34,1.07.02.05.03.1.05.15.03.08.05.15.08.23,0,0,0,0,0,0-.02-.02-.04-.03-.06-.05-.12-.09-.24-.18-.36-.26-.14-.1-.28-.2-.42-.3s-.28-.2-.41-.3c-.14-.1-.27-.2-.41-.29-.18-.13-.36-.26-.54-.39-.13-.09-.23-.17-.3-.21,0,0,0,0,0,0-.11-.06-.19-.08-.28-.06-.01,0-.03,0-.04.01-.01,0-.03,0-.04.02-.04.02-.08.04-.12.07-.05.03-.1.07-.15.11-.03.02-.06.04-.09.07-.42.3-.84.61-1.26.91-.19.14-.39.28-.58.42-.03.02-.05.04-.07.06,0,0-.02.02-.03.03-.01,0-.03.02-.04.03,0,0-.01,0-.02.01-.02.01-.04.02-.07.02-.03,0-.06,0-.1,0,.32-.98.63-1.95.95-2.91,0,0,0-.02,0-.02,0,0,0,0,0,0,0-.01,0-.03,0-.04,0-.06,0-.1-.03-.14,0,0-.01-.02-.02-.03s-.02-.02-.03-.03c-.02-.02-.04-.03-.06-.05h0s-.02-.02-.03-.02c-.1-.07-.2-.15-.31-.22,0,0,0,0,0,0-.2-.15-.41-.29-.61-.44-.28-.2-.57-.41-.86-.63-.16-.11-.32-.23-.48-.35-.08-.06-.17-.12-.25-.18h1.23c.63,0,1.26,0,1.89,0,.06,0,.1,0,.14-.01.03,0,.06-.03.09-.04.01,0,.03-.02.03-.03.01-.01.02-.03.03-.04.02-.03.03-.07.05-.11.08-.24.15-.48.23-.72.12-.36.23-.73.36-1.1.04-.12.08-.25.12-.37.08-.25.16-.5.25-.76.23.69.44,1.35.65,2,.07.22.14.43.21.65.03.08.05.16.07.22ZM445.78,26.4s0-.01.01-.02c.01-.01.03-.03.05-.03.02,0,.04,0,.05,0,.02,0,.04,0,.07,0,.02,0,.05,0,.07,0,.72,0,1.44,0,2.16,0,.18,0,.36,0,.54,0,.03,0,.06,0,.08,0,.02,0,.03,0,.05,0,.03,0,.06-.01.09-.03.01,0,.03-.01.04-.02.04-.03.08-.07.11-.13,0,0,.01-.02.01-.03,0-.01.01-.03.02-.04,0-.01,0-.03.01-.04.04-.12.07-.24.11-.36.11-.36.23-.71.34-1.07.16-.48.32-.97.48-1.48,0,0,0,0,0,0,.05.16.11.32.16.48.1.31.2.62.3.92.01.04.03.09.04.13.04.11.07.21.11.32.06.18.12.36.18.54.06.18.11.36.17.54.01.05.03.09.05.12,0,.02.02.03.03.05.01.02.03.03.05.04.01,0,.02.01.03.02.03.02.07.03.11.03.03,0,.06,0,.09,0,.16,0,.31,0,.47,0,.26,0,.52,0,.79,0h.16c.47,0,.94,0,1.42,0,.03,0,.06,0,.11,0,.02,0,.04,0,.07,0,.01,0,.03,0,.04,0,0,0,0,0,0,0h0c-.05.04-.1.08-.15.11-.3.22-.58.42-.85.62-.05.03-.09.07-.14.1-.11.08-.22.16-.33.24-.06.04-.11.08-.16.12-.08.06-.16.12-.25.18-.19.14-.39.28-.58.41-.03.02-.05.04-.07.05,0,0,0,0-.01.01-.01,0-.02.02-.03.03-.01.01-.02.02-.03.03-.01.02-.03.04-.03.07-.01.04-.01.07,0,.12,0,.04.02.08.03.13.04.12.08.24.12.36.08.24.16.48.24.72.08.24.16.48.23.73.03.09.06.18.09.28.03.09.06.19.09.28.06.19.12.38.18.57,0,0,0,0,0,0t0,0c-.32-.24-.64-.46-.95-.69-.1-.08-.21-.15-.31-.22-.21-.15-.41-.3-.61-.45-.2-.15-.41-.3-.61-.45-.02-.02-.04-.03-.06-.04,0,0,0,0,0,0-.04-.02-.08-.04-.11-.05-.02,0-.04,0-.05,0-.05,0-.09.01-.14.04-.03.02-.06.04-.09.06-.1.08-.2.15-.3.22-.03.02-.05.04-.08.06-.25.19-.51.37-.77.56-.13.09-.26.19-.39.28-.21.15-.42.3-.63.46-.11.08-.21.16-.32.23h0c.08-.25.16-.5.24-.74.23-.73.46-1.44.7-2.15,0-.02.01-.04.02-.06,0-.02,0-.03.01-.05.04-.17-.01-.28-.19-.4-.8-.56-1.58-1.14-2.37-1.72,0,0,0,0,0,0,0,0,0-.01.01-.02ZM445.76,54.14s.04,0,.05,0h.73c.49,0,.98,0,1.47,0,.23,0,.47,0,.7,0h.03c.22,0,.32-.06.39-.28.07-.24.15-.47.22-.71.23-.71.47-1.44.72-2.2h0s0,0,0,0c.03.1.06.2.1.3.08.25.16.49.24.72.14.42.27.84.41,1.25,0,.03.02.06.02.08.02.05.03.1.04.15.03.12.06.25.09.36.01.04.03.07.04.1.03.05.05.09.09.13.01.01.02.02.03.03.02.01.03.02.05.03.01,0,.03.02.05.02.01,0,.03.01.04.02.02,0,.04.01.06.02.22.04.51-.04.74-.03.16,0,.31,0,.47,0,.22,0,.44,0,.66,0,.37,0,.75,0,1.12,0,0,0,.02,0,.03,0,.02,0,.05,0,.06,0,0,0,0,0,0,0,0,0,0,0,0,.01h0s0,.02,0,.03c0,.03-.03.05-.06.06,0,0-.01,0-.02,0,0,0-.01,0-.02,0-.2.14-.39.28-.58.42-.32.23-.64.46-.96.7-.27.19-.54.39-.8.58-.14.1-.2.19-.18.32,0,.02,0,.04.01.06,0,.02.01.05.02.07.07.2.14.4.21.61.06.17.11.34.17.51.08.24.15.47.23.71.06.2.13.41.19.61,0,.02.02.04.02.06,0,0,0,.02.01.03,0,.02.02.04.02.06,0,.01,0,.02,0,.03,0,0,0,.02,0,.03,0,.04,0,.08-.02.13,0,0-.01,0-.02,0-.02,0-.04,0-.06,0-.01,0-.03,0-.04-.01-.07-.03-.12-.1-.18-.14-.17-.12-.34-.24-.51-.37-.3-.22-.61-.44-.91-.66-.13-.1-.26-.19-.4-.29-.07-.05-.14-.11-.21-.16-.01-.01-.03-.02-.04-.03-.03-.02-.05-.03-.08-.05-.04-.02-.07-.04-.11-.05-.05-.01-.09-.01-.14,0-.02,0-.04.01-.07.02,0,0,0,0,0,0-.02.01-.05.02-.07.04,0,0,0,0,0,0-.02.02-.05.03-.08.05h0c-.34.26-.68.52-1.03.77-.17.12-.35.25-.52.37-.17.12-.35.25-.52.37-.02.01-.04.03-.06.04-.02.02-.05.04-.07.05-.02.01-.03.02-.05.03-.01,0-.02,0-.03.01-.03,0-.07,0-.11,0,.15-.46.3-.93.45-1.4s.3-.93.46-1.39c.02-.05.03-.09.03-.13,0-.04,0-.08,0-.12,0-.03-.02-.05-.03-.07-.03-.04-.08-.08-.14-.13-.4-.28-.79-.56-1.17-.85-.2-.14-.39-.28-.59-.43-.2-.14-.39-.28-.58-.42-.01,0-.03,0-.04-.01-.01,0-.02-.01-.03-.02-.02-.02-.03-.04-.03-.06h0s.03,0,.05,0ZM435.61,16.18c.51,0,1.02,0,1.53,0,.51,0,1.02,0,1.53.01.09,0,.15-.02.19-.06,0,0,.01-.01.02-.02.01-.02.03-.04.03-.06.01-.02.02-.05.03-.07,0-.02.01-.04.02-.05.03-.1.06-.2.1-.3.19-.6.39-1.19.58-1.79.06-.19.12-.38.18-.57,0-.02.01-.03.02-.05,0-.02.01-.04.02-.06,0-.02.01-.04.02-.06.01-.02.02-.05.03-.07,0,0,0,0,0,0,.2.62.4,1.23.6,1.82.04.13.09.27.13.4.05.14.09.29.14.43.03.08.05.16.08.24,0,.03.02.05.03.07,0,.02.02.04.03.06.01.02.02.03.03.05.02.02.04.04.06.05.01,0,.03.01.04.02.02,0,.04.01.07.02.01,0,.02,0,.03,0,.03,0,.06,0,.09,0,.9-.01,1.8,0,2.7,0h.37c-.69.5-1.33.96-1.96,1.42-.21.15-.42.31-.63.45-.02.01-.04.03-.05.04-.01,0-.02.02-.03.03-.02.02-.03.03-.04.05h0s0,.02,0,.04c0,.02,0,.05.01.08,0,.01,0,.02.01.03.04.11.08.22.12.33.08.22.15.44.23.67.05.14.09.28.14.42.09.28.18.56.26.84.04.14.08.28.12.42.01.05.04.09.07.13,0,0,0,.02.01.03,0,0,0,.02.01.03,0,0,0,.02,0,.03,0,.03,0,.06,0,.1,0,0,0,0,0,0h0c-.2-.14-.41-.29-.61-.44-.41-.29-.81-.58-1.21-.88-.2-.15-.4-.29-.6-.44-.03-.02-.05-.03-.07-.05-.01,0-.02-.01-.03-.02-.02-.01-.04-.02-.06-.03t0,0s-.04-.01-.06-.01c-.09,0-.18.03-.29.11-.16.12-.32.24-.49.36-.41.3-.82.6-1.25.91-.13.09-.26.19-.39.28-.11.08-.21.16-.32.23t0,0s0,0,0,0c.04-.13.08-.25.12-.37.1-.3.18-.58.27-.85.02-.06.03-.11.05-.16.08-.26.17-.52.25-.79.08-.26.17-.52.26-.78h0s.02-.06.02-.08c0-.03,0-.05,0-.07,0-.01,0-.02,0-.03-.01-.07-.05-.12-.12-.18-.01,0-.02-.02-.04-.03-.2-.15-.41-.29-.61-.44-.41-.3-.81-.59-1.22-.89-.2-.15-.4-.3-.61-.45-.01,0-.02-.02-.03-.03.02,0,.04,0,.06-.01ZM435.56,64.3s0,0,0,0c0,0,.01,0,.02,0,.51,0,1.02,0,1.53,0s1.02,0,1.53.01c.05,0,.09,0,.13-.02.02,0,.03-.01.04-.02.01,0,.03-.02.04-.03.02-.02.04-.05.06-.08.01-.03.03-.07.04-.11.28-.89.57-1.77.86-2.65,0-.02.01-.04.02-.06.02-.06.05-.13.08-.22.08.24.16.49.24.73.12.36.24.71.35,1.07.11.35.23.7.34,1.05,0,.01,0,.03.01.04,0,.02.01.04.02.06,0,.02.02.03.03.05.02.03.04.06.06.08.01.01.03.03.05.04.02.01.04.02.06.03.06.02.13.03.22.03.21,0,.42,0,.63,0,.77,0,1.53,0,2.3,0,0,.03,0,.05,0,.06,0,0,0,.02-.01.02,0,0-.01.02-.02.02,0,0-.02.01-.02.02-.02.01-.03.02-.05.03-.02,0-.03.02-.05.03-.2.14-.39.29-.59.43-.39.29-.79.58-1.19.86-.2.14-.4.28-.6.42-.12.08-.1.13-.07.22,0,.01,0,.02.01.04.08.22.15.45.23.68.07.23.15.45.22.68.15.45.3.9.44,1.35h0s.02.07.03.11c0,.02.02.05.02.08.01.04.03.08.04.14h0c-.11-.08-.21-.15-.32-.23-.53-.38-1.04-.76-1.55-1.13-.2-.15-.4-.3-.61-.45-.02-.02-.04-.03-.06-.04,0,0,0,0,0,0-.02-.01-.04-.02-.06-.03-.02,0-.04-.01-.05-.02h0s-.03,0-.05,0c-.02,0-.04,0-.06,0,0,0-.01,0-.02,0,0,0-.02,0-.03.01-.02,0-.04.02-.06.03,0,0,0,0,0,0-.02.01-.04.03-.06.05-.7.52-1.4,1.03-2.16,1.57-.11.08-.22.16-.32.24t0,0s0,0,0,0c.06-.18.11-.35.17-.52.03-.08.06-.17.08-.25.13-.41.26-.81.39-1.21.05-.15.09-.3.14-.45.02-.08.05-.15.07-.22.03-.07.05-.15.08-.22.04-.1.06-.19.05-.26,0-.01,0-.03,0-.04-.01-.04-.03-.08-.07-.12-.01-.01-.02-.03-.04-.04-.01-.01-.03-.03-.04-.04-.02-.01-.03-.03-.05-.04-.24-.17-.47-.34-.71-.51-.16-.12-.33-.24-.49-.36-.2-.15-.4-.29-.59-.44-.2-.15-.4-.29-.59-.44,0,0-.02-.01-.03-.02,0,0,0,0-.01,0,0,0,0,0,0,0,0,0,.01,0,.02,0ZM421.7,12.46s.02,0,.03,0h.74c.49,0,.99,0,1.48,0,.25,0,.49,0,.74,0,.03,0,.06,0,.08,0,.05,0,.09-.01.12-.03,0,0,0,0,0,0,.01,0,.02-.01.03-.02.01,0,.02-.01.03-.02.02-.02.04-.04.06-.07,0,0,.01-.02.02-.03.01-.02.02-.04.03-.07,0-.01,0-.03.01-.04.04-.12.07-.24.11-.36.19-.59.38-1.19.58-1.8.08-.25.16-.5.24-.75,0,0,0,0,0,0,0,0,0,0,0,0,.03.1.07.2.09.28,0,0,0,.02,0,.03.06.16.11.3.15.44.06.18.12.37.18.55.18.55.36,1.09.53,1.64,0,.02.02.05.02.07,0,.02.01.03.02.04,0,.01.01.03.02.03t0,0s.02.02.03.04c0,0,0,0,0,0,0,0,.02.01.03.02,0,0,.02.01.03.02,0,0,0,0,0,0,.01,0,.03.01.04.01.03,0,.06,0,.09,0,.01,0,.03,0,.04,0,1,0,1.99,0,2.99,0,0,0,.02,0,.03,0h.03s0,0,0,.01c0,.02-.02.03-.03.05h0c-.2.15-.4.29-.59.44-.4.29-.79.59-1.19.87-.2.14-.4.29-.6.43-.06.05-.11.09-.14.14-.06.09-.06.19,0,.34.04.12.08.23.12.35.04.12.08.23.12.35.03.07.05.15.07.22.09.28.18.56.28.85.04.12.08.25.12.37.04.12.08.25.12.38.04.13.08.25.13.38h0c-.11-.08-.19-.14-.26-.19-.04-.03-.08-.06-.11-.08-.36-.26-.71-.51-1.07-.77s-.71-.52-1.06-.78c-.12-.09-.21-.11-.3-.08,0,0-.02,0-.03.01-.03.01-.06.03-.09.05-.01,0-.02.01-.03.02-.2.15-.4.3-.6.44-.4.3-.81.59-1.22.89-.21.15-.41.3-.62.45,0,0,0,0,0,0,0-.02,0-.05,0-.07,0-.01,0-.03,0-.04,0-.03,0-.07.02-.1.02-.1.05-.19.08-.28.02-.06.04-.12.06-.17,0-.03.02-.06.03-.09.06-.19.12-.38.18-.57.05-.17.11-.34.16-.51.12-.36.24-.72.36-1.08.01-.03.02-.06.03-.09,0-.04.01-.08,0-.11,0-.01,0-.02,0-.03,0-.01,0-.02-.01-.03,0,0-.01-.02-.02-.03-.01-.02-.03-.04-.05-.06-.02-.02-.05-.04-.08-.06-.2-.14-.4-.29-.61-.44-.6-.44-1.2-.88-1.81-1.33h0s-.04-.06-.04-.06c0,0,0,0,0,0h.03ZM421.66,68.06s0-.01.02-.02h0c.18,0,.35,0,.53,0h.02c.82,0,1.65,0,2.47,0,.03,0,.06,0,.09,0,0,0,.02,0,.03,0,0,0,.02,0,.03,0,.05-.01.09-.03.12-.07,0,0,.02-.02.03-.03,0-.01.02-.03.03-.05.01-.03.03-.06.04-.11.06-.21.13-.42.2-.63.07-.21.13-.42.2-.62.07-.21.14-.42.21-.62.03-.1.07-.21.1-.31.03-.1.07-.21.1-.31.01-.04.02-.08.03-.11,0-.02.01-.04.02-.06,0-.02.01-.04.03-.05,0-.01.02-.02.03-.03,0-.01.02-.02.03-.03.01,0,.03.01.04.02.04.03.06.07.07.12,0,.03.02.07.03.1.07.21.14.43.21.64.02.05.03.11.05.16.2.59.39,1.17.57,1.76.01.05.03.09.05.12,0,0,.01.02.02.03,0,0,0,0,0,0,.01.01.02.02.04.03.03.02.05.03.09.04.04,0,.08.01.14.01.9,0,1.8,0,2.7,0,.08,0,.17-.02.28.02,0,0,.01,0,.02,0,.01,0,.03.01.04.02-.79.57-1.56,1.15-2.34,1.69-.04.03-.08.06-.11.09-.02.01-.03.03-.04.04-.02.02-.04.05-.05.07,0,.01-.01.03-.02.04,0,.01-.01.03-.01.04,0,.03-.01.06-.01.09,0,.02,0,.03,0,.05s0,.04,0,.06c0,.02,0,.04.01.06,0,.02.01.04.02.06.03.1.07.2.1.3.03.1.07.2.1.3.08.24.16.48.24.72.13.4.26.81.39,1.23.03.09.06.18.09.28,0,0,0,0,0,0-.02-.01-.04-.03-.06-.04-.18-.13-.33-.23-.47-.33-.05-.04-.1-.07-.15-.11-.6-.44-1.21-.88-1.81-1.33h0s-.04-.03-.06-.04c0,0-.02-.01-.03-.02-.02,0-.03-.02-.05-.02-.01,0-.03,0-.04-.01-.02,0-.04,0-.05,0s-.03,0-.05,0c-.02,0-.03,0-.05.02-.02,0-.04.02-.06.03-.02.01-.04.03-.06.04-.19.14-.37.28-.56.42-.56.41-1.13.82-1.7,1.23-.05.03-.08.09-.16.1-.02,0-.04,0-.06,0h0s0,0,0,0c.14-.43.28-.85.42-1.28.14-.43.28-.85.41-1.28.03-.11.06-.2.08-.27.02-.07.03-.13.03-.18,0-.02,0-.04,0-.05,0-.02,0-.04-.02-.06,0-.02-.02-.03-.03-.05,0,0,0,0,0,0,0,0-.02-.02-.02-.03-.04-.05-.1-.1-.18-.16-.03-.02-.06-.04-.09-.07-.02-.01-.03-.03-.05-.04-.71-.51-1.42-1.03-2.13-1.54,0,0-.02,0-.02,0,0,0,0,0-.01,0,0,0,0,0-.01,0,0,0,0,0,0,0,0,0,0-.02,0-.03ZM407.86,16.22s.06-.04.1-.04c.04,0,.09,0,.13,0,.25,0,.5,0,.75,0,.42,0,.83,0,1.25,0,.22,0,.44,0,.67,0h0s.04,0,.06,0c.01,0,.03,0,.04,0,.01,0,.02,0,.04,0,.01,0,.02,0,.03,0,.02,0,.03,0,.05-.01.01,0,.03-.01.04-.02,0,0,0,0,0,0,.01,0,.03-.02.04-.03.01,0,.02-.02.03-.03,0-.01.02-.02.03-.04,0,0,.01-.02.02-.03,0,0,.01-.02.02-.03,0-.02.02-.04.03-.06,0-.01,0-.03.01-.04.04-.12.07-.24.11-.36.15-.47.3-.95.46-1.43.08-.24.16-.48.24-.73.04-.12.08-.25.12-.37.28.85.54,1.64.79,2.43.06.18.1.32.15.42.01.03.03.06.04.09,0,0,0,.01,0,.02.02.04.05.07.07.1.01.01.03.03.04.04.01,0,.03.02.04.03.01,0,.03.01.04.02,0,0,.02,0,.03.01s.02,0,.03,0c.01,0,.03,0,.04,0,.01,0,.03,0,.04,0,.01,0,.02,0,.03,0,.05,0,.11,0,.18.01.05,0,.11,0,.17,0h.14c.41,0,.82,0,1.24,0,.41,0,.82,0,1.24,0,0,0,.02,0,.03,0,0,0,.01,0,.02,0h0s-.03.02-.04.03c-.6.44-1.2.89-1.8,1.33-.2.15-.4.29-.6.44-.07.05-.11.09-.15.14-.04.06-.05.13-.04.22,0,.02,0,.04.01.06,0,0,0,0,0,0,0,.02.01.03.02.05.12.35.23.7.35,1.05.19.59.38,1.19.59,1.81-.11-.07-.18-.1-.24-.15-.76-.55-1.51-1.09-2.26-1.65-.04-.03-.08-.05-.11-.07-.03-.01-.07-.02-.1-.02-.07,0-.13.03-.21.09-.74.55-1.48,1.08-2.26,1.65-.08.06-.17.12-.26.19h0c.07-.21.14-.42.2-.63.2-.62.4-1.23.6-1.83.04-.11.08-.23.11-.34.01-.04.02-.07.03-.1,0-.03.01-.06.02-.09,0-.04,0-.08,0-.11,0-.02,0-.03-.01-.05,0-.01,0-.03-.01-.04,0-.02-.02-.05-.03-.07,0-.02-.02-.03-.03-.04-.02-.02-.03-.04-.06-.06-.03-.03-.07-.06-.12-.09-.29-.2-.57-.4-.86-.61-.19-.14-.38-.27-.56-.41-.19-.14-.38-.28-.57-.41-.09-.07-.19-.14-.28-.21,0,0,0,0,0,0,0-.02.02-.03.03-.04ZM407.83,64.38s.02-.03.03-.04c0,0,.02-.02.03-.02,0,0,.01,0,.02,0,0,0,.02,0,.03,0,.03,0,.06,0,.09,0,0,0,0,0,0,0,.02,0,.04,0,.06,0,.51,0,1.02,0,1.52,0,.39,0,.79,0,1.18,0,.05,0,.1,0,.14,0,.02,0,.03,0,.05-.01.02,0,.03-.01.05-.02,0,0,.01,0,.02-.01.02-.01.03-.03.05-.05,0,0,.01-.01.01-.02.02-.03.03-.05.05-.09,0-.02.02-.05.03-.07.07-.24.15-.48.23-.72.23-.72.47-1.44.72-2.21.11.32.21.63.31.93.17.51.33,1,.49,1.49.02.07.04.14.06.2,0,.02.01.04.02.06.02.06.04.1.06.15.02.05.04.1.06.13,0,.02.02.03.03.05.02.03.04.06.07.08.02.01.03.02.05.03.04.02.09.04.15.05.02,0,.05,0,.08.01.11.01.26.01.46.01.27,0,.54,0,.82,0,.14,0,.28,0,.42,0,.41,0,.82,0,1.24,0,0,0,.02,0,.02,0,.01,0,.02,0,.03,0h0s-.02.02-.03.03t0,0h0c-.38.28-.76.57-1.15.85-.19.14-.38.28-.58.42-.19.14-.39.28-.58.41-.05.03-.09.06-.12.09-.07.06-.12.13-.14.21,0,.01,0,.02,0,.03-.02.09,0,.19.05.32.08.22.16.45.23.67t0,0c.11.34.22.68.33,1.02.11.34.22.68.33,1.02h0s-.02,0-.02,0c-.03,0-.05,0-.07,0-.01,0-.03,0-.04-.02-.02,0-.03-.02-.04-.03-.01-.01-.03-.02-.04-.03,0,0-.01-.01-.02-.02-.18-.13-.37-.27-.55-.4-.14-.1-.28-.2-.42-.3-.14-.1-.28-.2-.41-.3-.14-.1-.28-.2-.41-.3-.14-.1-.27-.2-.41-.31-.02-.02-.05-.03-.07-.05,0,0,0,0,0,0-.02-.01-.04-.02-.06-.03s-.04-.02-.06-.02c0,0-.02,0-.03,0-.05,0-.11,0-.16.03-.04.02-.09.05-.14.09-.2.15-.4.3-.6.44-.42.31-.84.61-1.28.93-.17.13-.35.25-.53.38-.02.01-.03.02-.05.04,0,0,0,0,0,0,.04-.12.08-.24.12-.36.23-.72.45-1.41.68-2.09.04-.11.08-.23.11-.34.01-.03.02-.07.03-.1.04-.15.03-.27-.04-.38,0-.02-.02-.03-.04-.05,0-.01-.02-.02-.03-.04-.01-.01-.03-.02-.04-.04-.03-.02-.06-.05-.09-.07-.19-.13-.38-.27-.57-.4-.38-.27-.76-.55-1.13-.82-.19-.14-.38-.28-.57-.41,0,0,0,0,0,0ZM397.64,26.41s.03-.03.05-.04c.01,0,.03-.01.04-.01.04,0,.08,0,.12,0,.02,0,.04,0,.06,0,.24,0,.49,0,.73,0,.44,0,.88,0,1.32,0,.2,0,.39,0,.59,0,.06,0,.12,0,.16,0,.02,0,.04,0,.05-.01.01,0,.03,0,.04-.01,0,0,0,0,0,0,.01,0,.03-.01.04-.02.02,0,.03-.02.04-.03.01-.01.03-.03.04-.04,0-.01.01-.02.02-.03.03-.04.05-.1.07-.16.14-.47.29-.94.45-1.41l.03-.09c.07-.21.14-.42.21-.63,0-.02,0-.03.01-.04.07-.23.15-.45.23-.69,0,0,0,0,0,0,.33,1,.64,1.94.93,2.89,0,.01,0,.03.01.04,0,.03.02.05.03.08,0,.02.02.04.03.05.01.02.03.04.04.05,0,0,.02.02.03.02,0,0,.02.01.03.02.06.04.14.05.25.05.88-.01,1.76,0,2.64,0h.4s0,0,0,0c-.31.23-.62.45-.91.67-.2.14-.39.29-.58.42h0c-.29.21-.57.41-.86.61-.02.01-.04.03-.05.04,0,0-.01,0-.02.01-.04.03-.08.06-.11.1-.03.03-.05.07-.07.1-.04.08-.05.17-.03.29,0,.04.02.09.04.14.07.2.14.39.21.59.03.08.06.17.08.25.02.06.04.12.06.18.04.11.07.23.11.34.11.35.22.7.34,1.06.04.12.08.24.12.36h0c-.17-.12-.33-.24-.49-.35-.16-.12-.32-.23-.48-.35-.16-.11-.32-.23-.47-.34-.26-.19-.52-.38-.78-.57-.1-.07-.2-.15-.31-.23,0,0-.02-.01-.03-.02-.04-.03-.08-.05-.12-.06-.08-.02-.15,0-.24.08-.2.15-.41.3-.62.45-.21.15-.41.3-.62.45-.21.15-.42.31-.64.46-.11.08-.22.16-.32.23-.11.08-.22.16-.33.24t0,0s0,0,0,0c.07-.23.14-.45.22-.67.09-.29.18-.57.27-.85l.07-.21s.03-.09.05-.14c.06-.19.12-.37.18-.56.03-.09.06-.18.1-.28.02-.05.03-.09.05-.14.02-.04.03-.08.04-.12.04-.15,0-.26-.12-.38-.03-.03-.06-.06-.11-.08-.1-.07-.2-.14-.29-.2-.1-.07-.2-.14-.3-.21-.13-.09-.26-.19-.4-.29-.4-.29-.79-.58-1.19-.87l-.17-.12h0ZM403.69,56.26s0,.06.02.09c0,.02.01.03.02.05.14.4.27.8.4,1.2.13.4.26.8.38,1.21.02.06.05.11.07.17.02.06.03.13,0,.2-.03,0-.06,0-.08,0-.05-.01-.09-.04-.13-.08-.03-.03-.06-.05-.08-.07-.35-.25-.7-.5-1.04-.75-.35-.25-.69-.5-1.03-.76-.19-.15-.32-.13-.5,0-.69.52-1.4,1.03-2.1,1.53-.02.01-.04.03-.06.05-.01.01-.03.02-.04.03-.02.01-.03.02-.05.03-.04.02-.09.04-.14.03-.01,0-.02,0-.04,0h0c.31-.94.6-1.88.92-2.82,0-.03.02-.05.02-.08,0,0,0,0,0,0,0-.05,0-.1,0-.14-.02-.07-.07-.12-.15-.18-.06-.05-.13-.09-.19-.14-.73-.52-1.45-1.05-2.18-1.58-.01,0-.03,0-.04-.01-.01,0-.02-.01-.03-.02-.02-.02-.03-.04-.04-.06h0s.03,0,.05,0c.02,0,.03,0,.05,0h.73c.49,0,.98,0,1.47,0,.23,0,.47,0,.7,0h.03s.05,0,.08,0c.02,0,.03,0,.05,0,0,0,0,0,0,0,.01,0,.03,0,.04,0,.01,0,.03,0,.04-.01,0,0,0,0,0,0,.01,0,.02,0,.03-.02,0,0,.02-.01.03-.02.02-.01.03-.03.05-.05t0,0s.03-.04.04-.07c.01-.03.02-.06.03-.09.04-.12.08-.24.11-.36.11-.36.23-.71.34-1.08.08-.24.16-.48.24-.73h0c.08-.25.16-.5.25-.75,0,0,0,0,0,0,.03.08.05.16.08.24.07.22.15.44.22.65.01.04.02.08.04.11.04.13.09.27.13.4.05.15.1.3.15.45h0c.12.36.24.72.34,1.09.02.06.04.11.06.14.01.01.02.03.03.04.02.02.04.03.07.04,0,0,.01,0,.02,0,.03.01.07.02.11.02.01,0,.03,0,.04,0,.99,0,1.98,0,2.96,0,0,0,.02,0,.03,0,.03,0,.06,0,.07.01,0,0,0,0,0,.01,0,.03,0,.05-.03.07,0,0-.02.01-.03.02,0,0-.01,0-.02,0,0,0-.01,0-.02,0-.17.12-.34.24-.51.37-.03.02-.05.04-.08.06-.29.21-.58.43-.88.64-.29.21-.59.42-.88.63-.08.06-.13.11-.16.17,0,.01-.01.02-.01.03-.01.04-.01.07,0,.12ZM394.31,40.25c.66,0,1.31,0,1.97,0,.18,0,.36,0,.54,0,.11,0,.2,0,.27-.04.01,0,.02-.01.03-.02.02-.01.03-.02.05-.04.04-.03.07-.08.1-.14.01-.03.03-.07.04-.12.07-.23.14-.46.22-.7.07-.23.15-.47.23-.7l.12-.35c.08-.24.16-.48.24-.72.04-.12.08-.25.12-.37.04.12.08.23.12.35.08.23.16.46.23.69.04.11.08.23.11.34.03.08.05.15.07.23.03.07.05.14.07.22.04.13.08.25.12.38.01.03.02.07.03.11.04.14.08.27.12.41.01.05.03.09.04.12.01.03.03.06.04.09,0,.02.02.03.02.04s.02.03.03.04c.05.06.1.11.17.14,0,0,.02,0,.03.01.03.01.06.02.09.02.03,0,.07,0,.1.01.04,0,.08,0,.13,0,.1,0,.2,0,.29,0,.19,0,.38,0,.57,0,.65,0,1.31,0,2.01,0-.11.08-.21.15-.31.23-.21.15-.41.3-.61.45-.2.15-.4.29-.59.44-.2.14-.39.28-.59.42-.1.07-.2.14-.29.21l-.03.02s-.03.02-.04.03c-.01,0-.02.02-.03.02,0,0,0,0-.01.01-.02.01-.03.03-.05.05-.03.03-.05.06-.06.09-.05.11-.04.23.02.4.03.1.07.2.1.3.1.3.2.6.3.9.13.4.26.8.39,1.2,0,.02.01.04.02.07.03.08.05.15.04.24,0,.01,0,.03-.01.05-.4-.29-.81-.58-1.21-.88-.4-.29-.8-.59-1.2-.88-.11-.08-.2-.11-.29-.09-.02,0-.04.01-.06.02,0,0-.02,0-.03.01-.02.01-.04.02-.06.04-.01,0-.02.02-.03.02-.15.11-.3.22-.45.33-.45.33-.91.67-1.39,1.01-.21.15-.42.31-.64.47h0c.09-.27.15-.47.22-.66.19-.58.36-1.16.56-1.73.04-.13.09-.26.14-.39.04-.12.06-.22.06-.31v-.03s0,0,0,0c0-.01,0-.03,0-.04,0-.02-.01-.03-.02-.05-.02-.03-.04-.07-.06-.1-.01-.01-.02-.02-.04-.04-.03-.03-.06-.05-.09-.08-.01,0-.02-.02-.03-.02-.2-.13-.39-.27-.58-.41-.59-.42-1.17-.86-1.81-1.32h.48Z"></path><path class="cls-1" d="M430.33,12.52h0c-.2.15-.4.29-.59.44-.4.29-.79.59-1.19.87-.2.14-.4.29-.6.43-.06.05-.11.09-.14.14-.06.09-.06.19,0,.34.04.12.08.23.12.35.04.12.08.23.12.35.03.07.05.15.07.22.09.28.18.56.28.85.04.12.08.25.12.37.04.12.08.25.12.38.04.13.08.25.12.38-.11-.08-.19-.14-.26-.18-.04-.03-.08-.06-.11-.08-.36-.26-.71-.51-1.07-.77s-.71-.52-1.06-.78c-.12-.09-.21-.11-.3-.08,0,0-.02,0-.03.01-.03.01-.06.03-.09.05-.01,0-.02.01-.03.02-.2.15-.4.3-.6.44-.4.3-.81.59-1.22.89-.21.15-.41.3-.62.45,0,0,0,0,0,0,0-.02,0-.05,0-.07,0-.01,0-.03,0-.04,0-.03,0-.07.02-.1.02-.1.05-.19.08-.28.02-.06.04-.12.06-.17,0-.03.02-.06.03-.09.06-.19.12-.38.18-.57.05-.17.11-.34.16-.51.12-.36.24-.72.36-1.08.01-.03.02-.06.03-.09,0-.04.01-.08,0-.11,0-.01,0-.02,0-.03,0-.01,0-.02-.01-.03,0,0-.01-.02-.02-.03-.01-.02-.03-.04-.05-.06-.02-.02-.05-.04-.08-.06-.2-.14-.4-.29-.61-.44-.6-.44-1.2-.88-1.81-1.33h0s.02-.04.02-.06h0s.74,0,.74,0c.49,0,.99,0,1.48,0,.25,0,.49,0,.74,0,.03,0,.06,0,.08,0,.05,0,.09-.01.12-.03,0,0,0,0,0,0,.01,0,.02-.01.03-.02.01,0,.02-.01.03-.02.02-.02.04-.04.06-.07,0,0,.01-.02.02-.03.01-.02.02-.04.03-.07,0-.01,0-.03.01-.04.04-.12.07-.24.11-.36.19-.59.38-1.19.58-1.8.08-.25.16-.49.25-.75,0,0,0,0,0,0,.03.1.07.2.09.28,0,0,0,.02,0,.03.06.16.1.3.15.44.06.18.12.36.18.55.18.55.36,1.09.53,1.64,0,.02.02.05.02.07,0,.01.01.03.02.04,0,.01.01.03.02.03t0,0s.02.03.03.04c0,0,0,0,0,0,0,0,.02.01.03.02,0,0,.02.01.03.02,0,0,0,0,0,0,.01,0,.03.01.04.01.03,0,.06,0,.09,0,.01,0,.03,0,.04,0,1,0,1.99,0,2.99,0h0s.01.04.02.06Z"></path><path class="cls-1" d="M406.22,54.24c-.17.12-.34.25-.5.37-.03.02-.05.04-.08.06-.29.21-.58.42-.88.64-.29.21-.59.42-.88.63-.08.06-.13.11-.16.17,0,.01-.01.02-.01.03-.01.04-.01.07,0,.12,0,.03,0,.06.02.09,0,.01,0,.03.02.05.14.4.27.8.4,1.2.13.4.26.8.38,1.21.02.06.05.11.07.17.02.06.03.13,0,.2-.03,0-.06,0-.08,0-.05-.01-.09-.04-.13-.08-.03-.03-.06-.05-.08-.08-.35-.25-.7-.5-1.04-.75-.35-.25-.69-.5-1.03-.76-.19-.15-.32-.13-.5,0-.69.52-1.4,1.03-2.1,1.53-.02.01-.04.03-.06.05-.01.01-.03.02-.04.03-.02.01-.03.02-.05.03-.04.02-.09.04-.14.03-.01,0-.02,0-.04,0,.31-.94.6-1.88.92-2.82,0-.03.02-.05.02-.08,0,0,0,0,0,0,0-.05,0-.1,0-.14-.02-.07-.07-.12-.15-.18-.06-.05-.13-.09-.19-.14-.73-.52-1.45-1.05-2.18-1.58h0s0-.07,0-.11h0s.73,0,.73,0c.49,0,.98,0,1.47,0,.23,0,.47,0,.7,0h.03s.05,0,.08,0c.02,0,.03,0,.05,0,0,0,0,0,0,0,.01,0,.03,0,.04,0,.01,0,.03,0,.04-.01,0,0,0,0,0,0,.01,0,.02,0,.03-.02,0,0,.02-.01.03-.02.02-.01.03-.03.05-.05t0,0s.03-.04.04-.07c.01-.03.02-.06.03-.09.04-.12.07-.24.11-.36.11-.36.23-.71.34-1.08.08-.24.16-.48.24-.73h0c.08-.25.16-.5.25-.75,0,0,0,0,0,0,.03.08.05.16.08.24.07.22.14.44.22.65.01.04.02.08.04.11.04.14.09.27.13.4.05.15.1.3.15.45h0c.12.36.24.72.34,1.09.02.06.04.11.06.14.01.01.02.03.03.04.02.02.04.03.07.04,0,0,.01,0,.02,0,.03.01.07.02.11.02.01,0,.03,0,.04,0,.99,0,1.98,0,2.96,0h0s0,.07,0,.11Z"></path><path class="cls-1" d="M454.34,54.24c-.2.14-.39.28-.58.43-.32.23-.64.46-.96.7-.27.19-.54.39-.8.58-.14.1-.2.19-.18.32,0,.02,0,.04.01.06,0,.02.01.05.02.07.07.2.14.4.21.61.06.17.11.34.17.51.08.24.15.47.23.71.06.2.13.41.19.61,0,.02.02.04.02.06,0,0,0,.02.01.03,0,.02.02.04.02.06,0,0,0,.02,0,.03,0,0,0,.02,0,.03,0,.04,0,.08-.02.13,0,0-.01,0-.02,0-.02,0-.04,0-.06,0-.01,0-.03,0-.04-.01-.07-.03-.12-.1-.18-.14-.17-.12-.34-.24-.51-.37-.3-.22-.61-.44-.91-.66-.13-.1-.26-.19-.4-.29-.07-.05-.14-.11-.21-.16-.01-.01-.03-.02-.04-.03-.03-.02-.05-.03-.08-.05-.04-.02-.07-.04-.11-.05-.04-.01-.09-.01-.14,0-.02,0-.04.01-.07.02,0,0,0,0,0,0-.02,0-.05.02-.07.04,0,0,0,0,0,0-.02.01-.05.03-.08.05h0c-.34.26-.68.52-1.03.77-.17.12-.35.25-.52.37-.17.12-.35.25-.52.37-.02.01-.04.03-.06.04-.02.02-.05.04-.07.05-.02.01-.03.02-.05.03-.01,0-.02,0-.03.01-.03,0-.07,0-.11,0,.15-.47.3-.93.45-1.4.15-.47.3-.93.46-1.39.02-.05.03-.09.03-.13,0-.04,0-.08,0-.12,0-.03-.02-.05-.03-.07-.03-.05-.08-.09-.14-.13-.39-.28-.79-.56-1.18-.85-.2-.14-.39-.28-.59-.43-.2-.14-.39-.28-.58-.42h0s0-.07,0-.11h0s.73,0,.73,0c.49,0,.98,0,1.47,0,.23,0,.47,0,.7,0h.03c.22,0,.32-.06.39-.28.07-.24.15-.47.22-.71.23-.71.47-1.44.72-2.2.03.1.07.2.1.3.08.25.16.49.24.72.14.42.27.84.41,1.25,0,.03.02.06.02.08.01.05.03.1.04.15.03.12.06.25.09.36.01.04.03.07.04.1.02.05.05.09.09.13.01.01.02.02.03.03.02.01.03.02.05.03.01,0,.03.02.05.02.01,0,.03.01.04.02.02,0,.04.01.06.02.22.04.51-.03.75-.03.16,0,.31,0,.47,0,.22,0,.44,0,.66,0,.37,0,.75,0,1.12,0h0s0,.07,0,.11Z"></path><path class="cls-1" d="M413.88,66.36c-.02.09,0,.19.05.32.08.22.16.45.23.67t0,0c.11.34.22.68.33,1.02.11.34.22.68.33,1.02,0,0-.02,0-.02,0-.03,0-.05,0-.07,0-.01,0-.03,0-.04-.02-.02,0-.03-.02-.04-.03-.01-.01-.03-.02-.04-.03,0,0-.01-.01-.02-.02-.18-.13-.37-.27-.55-.4-.14-.1-.28-.2-.42-.3s-.28-.2-.41-.3c-.14-.1-.28-.2-.41-.3-.14-.1-.27-.2-.41-.31-.02-.02-.05-.03-.07-.05,0,0,0,0,0,0-.02-.01-.04-.02-.06-.03s-.04-.02-.06-.02c0,0-.02,0-.03,0-.05,0-.11,0-.16.03-.04.02-.09.05-.14.09-.2.15-.4.3-.6.44-.42.31-.84.61-1.28.93-.17.13-.35.25-.53.38-.02.01-.03.02-.05.04,0,0,0,0,0,0,.04-.12.08-.24.12-.36.23-.72.45-1.41.68-2.09.04-.11.08-.23.12-.34.01-.03.02-.07.03-.1.04-.15.03-.27-.04-.38,0-.02-.02-.03-.04-.05,0-.01-.02-.02-.03-.04-.01-.01-.03-.02-.04-.04-.03-.02-.06-.05-.09-.07-.19-.13-.38-.26-.57-.4-.38-.27-.76-.55-1.13-.82-.19-.14-.38-.28-.57-.41,0,0,0,0,0,0,0-.02.02-.03.03-.04,0,0,.02-.02.03-.02,0,0,.01,0,.02,0,0,0,.02,0,.03,0,.03,0,.06,0,.09,0,0,0,0,0,0,0,.02,0,.04,0,.06,0,.51,0,1.02,0,1.52,0,.39,0,.79,0,1.18,0,.05,0,.1,0,.14,0,.02,0,.03,0,.05-.01.02,0,.03-.01.05-.02,0,0,.01,0,.02-.01.02-.01.03-.03.05-.05,0,0,.01-.01.01-.02.02-.03.03-.05.05-.09,0-.02.02-.05.03-.07.07-.24.15-.48.23-.72.23-.72.47-1.44.72-2.21.11.32.21.63.31.93.17.51.33,1,.49,1.5.02.07.04.14.06.19,0,.02.01.04.02.06.02.06.04.11.06.15.02.05.04.1.06.13,0,.02.02.03.03.05.02.03.04.06.07.08.02.01.03.02.05.03.04.02.09.04.15.05.02,0,.05,0,.08.01.11.01.26.01.46.01.27,0,.54,0,.82,0,.14,0,.28,0,.42,0,.41,0,.82,0,1.24,0,0,.03,0,.04.03.05-.38.28-.76.57-1.15.85-.19.14-.38.28-.58.42-.19.14-.39.28-.58.41-.05.03-.09.06-.12.1-.07.06-.12.13-.14.21,0,.01,0,.02,0,.03Z"></path><path class="cls-1" d="M402.64,40.25c-.11.08-.21.15-.31.23-.21.15-.41.3-.61.45-.2.15-.4.29-.59.44-.2.14-.39.28-.59.42-.1.07-.2.14-.3.21-.01,0-.02.01-.03.02-.01,0-.03.02-.04.03-.01,0-.02.02-.03.02,0,0,0,0-.01.01-.02.01-.03.03-.05.05-.03.03-.05.06-.06.09-.05.11-.04.23.02.4.03.1.07.2.1.3.1.3.2.6.3.9.13.4.26.8.39,1.21,0,.02.01.04.02.06.03.08.05.15.04.24,0,.01,0,.03-.01.04-.4-.29-.81-.58-1.21-.87-.4-.29-.8-.59-1.2-.88-.11-.08-.2-.11-.29-.09-.02,0-.04.01-.06.02,0,0-.02,0-.03.01-.02.01-.04.02-.06.04-.01,0-.02.02-.03.02-.15.11-.3.22-.45.33-.45.33-.91.67-1.39,1.01-.21.15-.42.31-.64.47.09-.27.15-.47.22-.66.19-.58.36-1.16.56-1.73.05-.13.09-.26.14-.39.04-.12.06-.22.06-.31v-.03s0,0,0,0c0-.01,0-.03,0-.04,0-.02-.01-.03-.02-.05-.02-.03-.04-.07-.06-.1-.01-.01-.02-.02-.04-.04-.03-.03-.06-.05-.09-.08-.01,0-.02-.02-.03-.03-.2-.13-.39-.27-.59-.41-.59-.42-1.17-.86-1.81-1.32h.48c.66,0,1.31,0,1.97,0,.18,0,.36,0,.54,0,.11,0,.2,0,.27-.04.01,0,.02-.01.03-.02.02-.01.03-.02.05-.04.04-.03.07-.08.1-.14.02-.03.03-.07.04-.11.07-.23.14-.47.21-.7.07-.23.15-.47.23-.7l.12-.35c.08-.24.16-.48.24-.72.04-.12.08-.25.12-.37.04.12.08.23.12.35.08.23.15.46.23.69.04.11.08.23.11.34.03.08.05.15.07.23.03.07.05.14.07.22.04.13.08.25.12.38.01.03.02.07.03.11.04.14.08.27.12.41.01.05.03.09.04.12.01.03.03.06.04.09,0,.02.02.03.02.04,0,.01.02.03.03.04.05.06.1.11.17.14,0,0,.02,0,.03.01.03.01.06.02.09.02.03,0,.07,0,.1.01.04,0,.08,0,.13,0,.1,0,.2,0,.29,0,.19,0,.38,0,.57,0,.65,0,1.31,0,2.01,0Z"></path><path class="cls-1" d="M442.59,21.23s0,.06,0,.09h0c-.2-.14-.41-.29-.61-.44-.41-.29-.81-.58-1.21-.88-.2-.15-.4-.29-.6-.44-.03-.02-.05-.03-.07-.05-.01,0-.02-.01-.03-.02-.02-.01-.04-.02-.06-.03t0,0s-.04-.01-.06-.01c-.09,0-.18.03-.29.11-.16.12-.32.24-.49.36-.41.3-.82.6-1.25.91-.13.09-.26.19-.39.28-.11.08-.21.15-.32.23h0s0,0,0,0c.04-.13.08-.25.12-.37.1-.3.18-.58.27-.85.02-.06.04-.11.05-.16.08-.26.17-.53.25-.79.08-.26.17-.52.26-.78h0s.02-.06.02-.08c0-.03,0-.05,0-.07,0-.01,0-.02,0-.03-.01-.07-.05-.12-.12-.18-.01,0-.02-.02-.04-.03-.2-.15-.41-.29-.61-.44-.41-.3-.81-.59-1.22-.89-.2-.15-.4-.3-.61-.45.02,0,.03-.02.02-.04.51,0,1.02,0,1.53,0,.51,0,1.02,0,1.53.01.09,0,.15-.02.19-.06,0,0,.01-.02.02-.02.01-.02.03-.04.03-.06.01-.02.02-.05.03-.07,0-.02.01-.03.02-.05.03-.1.06-.2.1-.3.19-.6.39-1.19.58-1.79.06-.19.12-.38.18-.57,0-.02.01-.03.02-.05,0-.02.01-.04.02-.06,0-.02.02-.04.02-.06.01-.02.02-.05.03-.07,0,0,0,0,0,0,.2.62.4,1.23.6,1.82.04.13.09.27.13.4.05.14.09.29.14.43.03.08.05.16.08.24,0,.03.02.05.03.07s.02.04.03.06c.01.02.02.03.03.05.02.02.04.04.06.05.01,0,.03.01.04.02.02,0,.04.01.07.02.01,0,.02,0,.03,0,.03,0,.06,0,.09,0,.9-.01,1.8,0,2.7,0h.37c-.69.5-1.33.96-1.96,1.42-.21.15-.42.3-.63.45-.02.01-.04.03-.05.04-.01,0-.02.02-.03.03-.02.02-.03.03-.04.05h0s0,.02,0,.04c0,.02,0,.05.01.08,0,.01,0,.02.01.03.04.11.08.22.12.33.08.22.15.44.23.67.05.14.09.28.14.42.09.28.18.56.26.84.04.14.08.28.12.42.01.05.04.09.07.13,0,0,0,.02.01.03,0,0,0,.02.01.03,0,0,0,.02,0,.03Z"></path><path class="cls-1" d="M458.2,40.25c-.07.05-.14.11-.21.16-.14.1-.28.2-.41.3-.13.1-.27.19-.4.29-.2.14-.39.28-.58.42-.29.21-.57.43-.87.63-.03.02-.06.04-.09.07-.01.01-.02.02-.03.03-.02.02-.03.04-.04.06,0,.01-.01.02-.02.03,0,.02-.01.04-.02.06,0,.02,0,.04,0,.06,0,.02,0,.04,0,.07,0,.03.02.06.03.1.05.16.11.32.16.49,0,0,0,0,0,0,.06.19.13.38.19.58.04.13.08.26.13.39.11.35.23.71.34,1.07.02.05.03.1.05.15.03.08.05.15.08.23,0,0,0,0,0,0-.02-.02-.04-.03-.06-.05-.12-.09-.24-.18-.36-.26-.14-.1-.28-.2-.42-.3s-.28-.2-.41-.3c-.14-.1-.27-.2-.41-.29-.18-.13-.36-.26-.54-.39-.13-.09-.23-.16-.31-.21,0,0,0,0,0,0-.11-.06-.19-.08-.28-.06-.01,0-.03,0-.04.01-.01,0-.03,0-.04.02-.04.02-.08.04-.12.07-.05.03-.1.07-.15.11-.03.02-.06.04-.09.07-.42.3-.84.61-1.26.91-.19.14-.39.28-.58.42-.03.02-.05.04-.07.06-.01,0-.02.02-.03.03-.01,0-.03.02-.04.03,0,0-.01,0-.02.01-.02.01-.04.02-.07.02-.03,0-.06,0-.1,0,.32-.98.63-1.95.95-2.91,0,0,0-.02,0-.02,0,0,0,0,0,0,0-.01,0-.03,0-.04,0-.06,0-.1-.03-.14,0,0-.01-.02-.02-.03s-.02-.02-.03-.03c-.02-.02-.04-.03-.06-.05h0s-.02-.02-.03-.02c-.1-.07-.2-.15-.31-.22,0,0,0,0,0,0-.2-.15-.41-.3-.61-.44-.28-.2-.57-.41-.86-.63-.16-.12-.32-.23-.48-.35-.08-.06-.17-.12-.25-.18h1.23c.63,0,1.26,0,1.89,0,.06,0,.1,0,.14-.01.03,0,.06-.02.09-.04.01,0,.03-.02.03-.03.01-.01.02-.03.03-.04.02-.03.03-.07.05-.11.08-.24.15-.48.23-.72.12-.36.23-.73.36-1.1.04-.12.08-.25.12-.37.08-.25.16-.5.25-.76.23.69.44,1.35.65,2,.07.22.14.43.21.65.03.08.05.16.07.22.02.07.05.12.07.16,0,.01.01.02.02.03,0,.01.02.03.03.04,0,0,0,0,0,0,.01.01.03.03.04.03.01,0,.03.01.04.02,0,0,.02,0,.02,0,.02,0,.03,0,.05.01.01,0,.03,0,.04,0,.02,0,.03,0,.05,0,0,0,.02,0,.03,0,.01,0,.03,0,.05,0,.06,0,.14,0,.23,0h2.78Z"></path><path class="cls-1" d="M444.21,64.37s0,.02-.01.02c0,0-.01.02-.02.02,0,0-.02.01-.02.02-.02.01-.03.02-.05.03-.02,0-.03.02-.05.03-.2.14-.39.29-.59.43-.39.29-.79.58-1.19.86-.2.14-.4.28-.6.42-.12.08-.1.13-.07.22,0,.01,0,.02.01.04.08.22.15.45.23.68.07.23.15.45.22.68.15.45.3.9.44,1.35h0s.02.07.03.11c0,.02.02.05.02.08.01.04.03.08.04.14h0c-.11-.08-.21-.15-.32-.23-.53-.38-1.04-.76-1.55-1.13-.2-.15-.4-.3-.61-.45-.02-.02-.04-.03-.06-.04,0,0,0,0,0,0-.02-.01-.04-.02-.06-.03-.02,0-.04-.01-.05-.02h0s-.03,0-.05,0c-.02,0-.04,0-.06,0,0,0-.01,0-.02,0,0,0-.02,0-.03.01-.02,0-.04.02-.06.03,0,0,0,0,0,0-.02.01-.04.03-.06.05-.7.52-1.4,1.03-2.16,1.57-.11.08-.22.16-.32.24t0,0c.06-.18.11-.35.17-.52.03-.08.06-.17.08-.25.13-.41.26-.81.39-1.21.05-.15.09-.3.14-.45.02-.07.05-.15.07-.22.03-.07.05-.15.08-.22.04-.1.06-.19.05-.26,0-.01,0-.03,0-.04-.01-.04-.03-.08-.07-.12-.01-.01-.02-.03-.04-.04-.01-.01-.03-.03-.04-.04-.02-.01-.03-.03-.05-.04-.24-.17-.47-.34-.71-.51-.16-.12-.33-.24-.49-.36-.2-.15-.4-.29-.59-.44-.2-.15-.4-.29-.59-.44h0s0,0,0,0l.02-.02-.02-.02c.51,0,1.02,0,1.53,0,.51,0,1.02,0,1.53.01.05,0,.09,0,.13-.02.02,0,.03-.01.04-.02.01,0,.03-.02.04-.03.02-.02.04-.05.06-.08.01-.03.03-.07.04-.11.28-.89.57-1.77.86-2.65,0-.02.01-.04.02-.06.02-.06.05-.13.08-.22.08.24.16.49.24.73.12.36.24.71.35,1.07.11.35.23.7.34,1.05,0,.01,0,.03.01.04,0,.02.01.04.02.06,0,.02.02.04.03.05.02.03.04.06.06.08.01.01.03.03.05.04.02.01.04.02.06.03.06.02.13.03.22.03.21,0,.42,0,.63,0,.77,0,1.53,0,2.3,0,0,.03,0,.05,0,.06Z"></path><path class="cls-1" d="M413.91,18.12c-.04.06-.05.13-.04.22,0,.02,0,.04.01.06,0,0,0,0,0,0,0,.02.01.03.02.05.12.35.23.7.35,1.05.19.59.38,1.19.59,1.81-.11-.07-.18-.1-.24-.15-.76-.55-1.51-1.09-2.26-1.65-.04-.03-.08-.05-.11-.07-.03-.01-.07-.02-.1-.02-.07,0-.13.03-.21.09-.74.55-1.48,1.08-2.26,1.65-.08.06-.17.12-.26.19h0c.07-.21.14-.42.2-.63.2-.62.4-1.23.6-1.83.04-.11.08-.23.12-.34.01-.04.02-.07.03-.1,0-.03.01-.06.02-.09,0-.04,0-.08,0-.11,0-.02,0-.03-.01-.05,0-.01,0-.03-.01-.04,0-.02-.02-.05-.03-.07,0-.01-.02-.03-.03-.04-.02-.02-.03-.04-.06-.06-.03-.03-.07-.06-.12-.09-.29-.2-.57-.4-.86-.61-.19-.14-.38-.27-.56-.41-.19-.14-.38-.28-.57-.41-.09-.07-.19-.14-.28-.21,0,0,0,0,0,0,0-.02.02-.03.03-.04.03-.03.06-.04.1-.04.04,0,.09.01.13.01.25,0,.5,0,.75,0,.42,0,.83,0,1.25,0,.22,0,.45,0,.67,0h0s.04,0,.06,0c.01,0,.03,0,.04,0,.01,0,.02,0,.04,0,.01,0,.02,0,.03,0,.02,0,.03,0,.05-.01.02,0,.03-.01.04-.02,0,0,0,0,0,0,.01,0,.03-.02.04-.03.01,0,.02-.02.03-.03,0-.01.02-.02.03-.04,0,0,.01-.02.02-.03,0,0,.01-.02.02-.03,0-.02.02-.04.03-.06,0-.01,0-.03.01-.04.04-.12.07-.24.11-.36.15-.47.3-.95.46-1.43.08-.24.16-.48.24-.73.04-.12.08-.25.12-.37.28.85.54,1.64.79,2.43.06.18.1.32.15.42.01.03.03.06.04.09,0,0,0,.01,0,.02.02.04.05.07.07.1.01.01.03.03.04.04.01,0,.03.02.04.03.01,0,.03.01.04.02,0,0,.02,0,.03.01,0,0,.02,0,.03,0,.01,0,.03,0,.04,0,.01,0,.03,0,.04,0,0,0,.02,0,.03,0,.05,0,.11,0,.18.01.05,0,.11,0,.17,0h.14c.41,0,.82,0,1.24,0,.41,0,.82,0,1.24,0l-.02.02.02.02c-.6.44-1.2.89-1.8,1.33-.2.15-.4.29-.61.44-.07.05-.11.09-.14.14Z"></path><path class="cls-1" d="M428.64,72.91c.03.09.06.18.09.28h0s-.04-.03-.06-.04c-.18-.13-.33-.23-.47-.33-.05-.04-.1-.07-.15-.11-.6-.44-1.21-.88-1.81-1.33h0s-.04-.03-.06-.04c0,0-.02-.01-.03-.02-.02,0-.03-.02-.05-.02-.01,0-.03,0-.04-.01-.02,0-.04,0-.05,0s-.03,0-.05,0c-.02,0-.03,0-.05.02-.02,0-.04.02-.06.03-.02.01-.04.03-.06.04-.19.14-.37.28-.56.42-.56.41-1.13.82-1.7,1.23-.05.03-.08.09-.16.1-.02,0-.04,0-.06,0h0c.14-.43.28-.86.41-1.28.14-.43.28-.85.41-1.28.03-.11.06-.2.08-.27.02-.07.03-.13.03-.18,0-.02,0-.04,0-.05,0-.02,0-.04-.02-.06,0-.02-.02-.03-.03-.05,0,0,0,0,0,0,0,0-.01-.02-.02-.03-.04-.05-.1-.1-.18-.16-.03-.02-.06-.05-.09-.07-.02-.01-.03-.03-.05-.04-.71-.51-1.42-1.03-2.13-1.54-.01-.03-.03-.05-.04-.07h0c.18,0,.35,0,.53,0h.02c.82,0,1.65,0,2.47,0,.03,0,.06,0,.09,0,0,0,.02,0,.03,0,0,0,.02,0,.03,0,.05-.01.09-.03.12-.07,0,0,.02-.02.03-.03,0-.01.02-.03.03-.05.01-.03.03-.06.04-.11.06-.21.13-.42.2-.63.07-.21.13-.42.2-.62.07-.21.14-.42.21-.62.03-.1.07-.21.1-.31.03-.1.07-.21.1-.31.01-.04.02-.08.03-.11,0-.02.01-.04.02-.06,0-.02.02-.04.03-.05,0-.01.02-.02.03-.03,0,0,.02-.02.03-.03.01,0,.03.01.04.02.04.03.06.07.07.12,0,.03.02.07.03.1.07.21.14.43.21.64.02.05.03.11.05.16.19.59.39,1.17.57,1.76h0c.01.05.03.09.05.12,0,0,.01.02.02.03,0,0,0,0,0,0,.01.01.02.02.04.03.03.02.05.03.09.04.04,0,.08.01.14.01.9,0,1.8,0,2.7,0,.08,0,.17-.02.28.02,0,0,.01,0,.02,0,.01,0,.03.01.04.02-.79.57-1.56,1.15-2.34,1.69-.04.03-.08.06-.11.09-.02.01-.03.03-.04.04-.02.02-.04.05-.05.07,0,.01-.02.03-.02.04,0,.01-.01.03-.01.04,0,.03-.01.06-.01.09,0,.02,0,.03,0,.05s0,.04,0,.06c0,.02,0,.04.01.06,0,.02.01.04.02.06.03.1.07.2.1.3.03.1.07.2.1.3.08.24.16.48.24.72.13.4.26.81.39,1.23Z"></path><path class="cls-1" d="M454.45,26.37c-.05.04-.1.08-.15.11-.3.22-.58.42-.85.62-.05.03-.09.07-.14.1-.11.08-.22.16-.33.24-.06.04-.11.08-.16.12-.08.06-.16.12-.25.18-.19.14-.39.28-.58.41-.03.02-.05.04-.07.05,0,0,0,0-.01.01-.01,0-.02.02-.03.03-.01.01-.02.02-.03.03-.02.02-.03.05-.03.07-.01.04-.01.07,0,.12,0,.04.02.08.03.13.04.12.08.24.12.36.08.24.16.48.24.72.08.24.16.48.23.73.03.09.06.18.09.28.03.09.06.19.09.28.06.19.12.38.18.57,0,0,0,0,0,0h0c-.32-.23-.64-.46-.95-.69-.1-.08-.21-.15-.31-.22-.21-.15-.41-.3-.61-.45-.2-.15-.41-.3-.61-.45-.02-.02-.04-.03-.06-.04,0,0,0,0,0,0-.04-.02-.08-.04-.11-.05-.02,0-.04,0-.05,0-.05,0-.09.01-.14.04-.03.02-.06.04-.09.06-.1.08-.2.15-.3.23-.03.02-.05.04-.08.06-.25.19-.51.37-.77.56-.13.09-.26.19-.39.28-.21.15-.42.3-.63.46-.11.08-.21.15-.32.23.08-.25.16-.5.24-.74.23-.73.46-1.44.7-2.15,0-.02.01-.04.02-.06,0-.02,0-.03.01-.05.04-.17-.01-.28-.19-.4-.8-.56-1.58-1.14-2.37-1.72,0,0,0,0,0,0,0,0,0-.01.01-.02,0,0,0-.01.01-.02.01-.01.03-.03.05-.03.02,0,.04,0,.05,0,.02,0,.04,0,.07,0,.02,0,.05,0,.07,0,.72,0,1.44,0,2.16,0,.18,0,.36,0,.54,0,.03,0,.06,0,.08,0,.02,0,.04,0,.05,0,.03,0,.06-.01.09-.03.01,0,.03-.01.04-.02.04-.03.08-.07.11-.13,0,0,.01-.02.01-.03,0-.01.01-.03.02-.04,0-.01,0-.03.01-.04.04-.12.07-.24.11-.36.11-.36.23-.71.34-1.07.16-.48.32-.97.48-1.48,0,0,0,0,0,0,.05.16.11.32.16.48.1.31.2.62.3.92.01.04.03.09.04.13.04.11.07.21.11.32.06.18.12.36.18.54.06.18.11.36.17.54.01.05.03.09.05.12,0,.02.02.03.03.05.01.02.03.03.05.04.01,0,.02.01.03.02.03.02.07.03.11.03.03,0,.06,0,.09,0,.16,0,.31,0,.47,0,.26,0,.52,0,.79,0h.16c.47,0,.94,0,1.41,0,.03,0,.06,0,.11,0,.02,0,.04,0,.07,0,.01,0,.03,0,.04,0h0Z"></path><path class="cls-1" d="M406.36,26.36c-.31.23-.62.45-.91.67-.2.14-.39.28-.58.42h0c-.29.21-.57.41-.86.61-.02.01-.04.03-.05.04,0,0-.01,0-.02.01-.04.03-.08.06-.11.1-.03.03-.05.07-.07.1-.04.08-.05.17-.03.29,0,.04.02.09.04.14.07.2.14.39.21.59.03.08.06.17.08.25.02.06.04.12.06.18.04.11.07.23.11.34.11.35.22.7.34,1.06.04.12.08.24.12.36h0c-.17-.11-.33-.23-.49-.35-.16-.12-.32-.23-.48-.35-.16-.11-.32-.23-.47-.34-.26-.19-.52-.38-.78-.57-.1-.08-.2-.15-.31-.23,0,0-.02-.01-.03-.02-.04-.03-.08-.05-.12-.06-.08-.02-.15,0-.24.08-.2.15-.41.3-.62.45-.21.15-.41.3-.62.45-.21.15-.42.31-.64.46-.11.08-.22.16-.32.23-.11.08-.22.16-.33.24t0,0c.07-.23.14-.45.21-.67.09-.29.18-.57.27-.85.02-.07.05-.14.07-.21.02-.05.03-.09.04-.14.06-.19.12-.37.18-.56.03-.09.06-.18.1-.28.02-.05.03-.09.05-.14.02-.04.03-.08.04-.12.04-.15,0-.26-.12-.38-.03-.03-.06-.06-.11-.08-.1-.07-.2-.14-.29-.2-.1-.07-.2-.14-.3-.21-.13-.1-.26-.19-.4-.29-.4-.29-.79-.58-1.19-.87l-.17-.12h0s.03-.03.05-.04c.01,0,.03-.01.04-.01.04,0,.08,0,.12,0,.02,0,.04,0,.06,0,.24,0,.49,0,.73,0,.44,0,.88,0,1.32,0,.2,0,.39,0,.59,0,.06,0,.12,0,.16-.01.02,0,.04,0,.05-.01.01,0,.03,0,.04-.01,0,0,0,0,0,0,.01,0,.03-.01.04-.02.02,0,.03-.02.04-.03.01-.01.03-.03.04-.04,0-.01.01-.02.02-.03.03-.04.05-.1.07-.16.14-.47.29-.94.45-1.41l.03-.09c.07-.21.14-.42.21-.63,0-.02,0-.03.01-.04.08-.23.15-.45.23-.69,0,0,0,0,0,0,.33,1,.64,1.94.93,2.89,0,.01,0,.03.01.04,0,.03.02.05.03.08,0,.02.02.04.03.05.01.02.03.04.04.05,0,0,.02.02.03.02,0,0,.02.01.03.02.06.04.14.05.25.05.88-.02,1.76,0,2.64,0h.4Z"></path><path class="cls-5" d="M397.7,54.13h0s0,.07,0,.11h0s-.03,0-.04,0c-.01,0-.02-.01-.03-.02-.02-.02-.03-.04-.04-.06h0s.03,0,.05,0c.02,0,.03,0,.05,0Z"></path><path class="cls-5" d="M406.31,54.15s0,.05-.03.07c0,0-.02.01-.03.02,0,0-.01,0-.02,0,0,0-.01,0-.02,0,0-.04,0-.07,0-.11h0s.02,0,.03-.01c.03,0,.06,0,.07.01,0,0,0,0,0,.01Z"></path><path class="cls-5" d="M445.82,54.13h0s0,.07,0,.11h0s-.03,0-.04,0c-.01,0-.02-.01-.03-.02-.02-.02-.03-.04-.03-.06h0s.03,0,.05,0c.02,0,.04,0,.05,0Z"></path><path class="cls-5" d="M454.43,54.15h0s0,.02,0,.03c0,.03-.03.05-.06.06,0,0-.01,0-.02,0,0,0-.01,0-.02,0,0-.04,0-.07,0-.11h0s.02,0,.03-.01c.02,0,.05,0,.06,0,0,0,0,0,0,0,0,0,0,0,0,.01Z"></path><path class="cls-4" d="M421.73,12.46h0s0,.04-.02.06l-.04-.06s.02,0,.03,0c0,0,.02,0,.03,0Z"></path><path class="cls-4" d="M430.36,12.46s0,0,0,0c0,.02-.02.03-.03.05,0-.02-.01-.04-.02-.06h0s.02,0,.03,0c0,0,.02,0,.03,0h0Z"></path><path class="cls-8" d="M416.5,16.19s-.03.02-.04.03l-.02-.02.02-.02s.02,0,.03,0c0,0,.01,0,.02,0Z"></path><path class="cls-8" d="M435.61,16.18s0,.04-.02.04c-.01,0-.02-.02-.03-.03.02,0,.04,0,.06-.01Z"></path><path class="cls-8" d="M416.49,64.31s-.02.02-.03.03t0,0h0s-.03-.02-.03-.05c0,0,.02,0,.03,0,.01,0,.02,0,.03,0h0Z"></path><path class="cls-8" d="M435.6,64.32l-.02.02h0s-.02-.01-.03-.02c0,0,0,0-.01,0,0,0,0,0,0,0,0,0,.01,0,.02,0,0,0,0,0,0,0,0,0,.01,0,.02,0l.02.02Z"></path><path class="cls-3" d="M421.72,68.11s-.02,0-.02,0c0,0,0,0-.01,0,0,0,0,0-.01,0,0,0,0,0,0,0,0,0,0-.02,0-.03,0,0,0-.01.02-.02.01.03.03.05.04.07Z"></path></g><rect class="cls-2" x="384.29" y=".1" width="83.32" height="83.32"></rect><g><path class="cls-6" d="M62.58.1C28.02.1,0,28.11,0,62.67s28.02,62.58,62.58,62.58,62.57-28.02,62.57-62.58S97.14.1,62.58.1ZM62.58,110.4c-26.36,0-47.73-21.37-47.73-47.73S36.22,14.94,62.58,14.94s47.73,21.37,47.73,47.73-21.37,47.73-47.73,47.73Z"></path><g><path class="cls-6" d="M93.35,31.9l-11.14,19.64-10.56,18.62-4.96-4.96c.45-.73.71-1.6.71-2.52,0-2.66-2.16-4.83-4.83-4.83-.92,0-1.78.26-2.52.71l-4.97-4.97,18.63-10.56,19.64-11.14Z"></path><path class="cls-7" d="M70.06,71.76l-18.62,10.56-19.64,11.14,11.14-19.64,10.56-18.63,4.96,4.96c-.45.73-.71,1.6-.71,2.53,0,2.67,2.16,4.83,4.83,4.83.93,0,1.79-.26,2.53-.71l4.96,4.96Z"></path></g></g></svg>